<?xml version="1.0" encoding="UTF-8" standalone="no"?>
<!-- Created with Inkscape (http://www.inkscape.org/) -->

<svg
   xmlns:dc="http://purl.org/dc/elements/1.1/"
   xmlns:cc="http://creativecommons.org/ns#"
   xmlns:rdf="http://www.w3.org/1999/02/22-rdf-syntax-ns#"
   xmlns:svg="http://www.w3.org/2000/svg"
   xmlns="http://www.w3.org/2000/svg"
   xmlns:xlink="http://www.w3.org/1999/xlink"
   xmlns:sodipodi="http://sodipodi.sourceforge.net/DTD/sodipodi-0.dtd"
   xmlns:inkscape="http://www.inkscape.org/namespaces/inkscape"
   width="744.09448819"
   height="1052.3622047"
   id="svg2"
   version="1.1"
   inkscape:version="0.47 r22583"
   sodipodi:docname="fh-bai-tum.svg">
  <defs
     id="defs4">
    <inkscape:perspective
       sodipodi:type="inkscape:persp3d"
       inkscape:vp_x="0 : 526.18109 : 1"
       inkscape:vp_y="0 : 1000 : 0"
       inkscape:vp_z="744.09448 : 526.18109 : 1"
       inkscape:persp3d-origin="372.04724 : 350.78739 : 1"
       id="perspective10" />
    <clipPath
       id="clipPath2892"
       clipPathUnits="userSpaceOnUse">
      <path
         id="path2894"
         d="m 0,0 6120,0 0,2415.78 -6120,0 L 0,0 z" />
    </clipPath>
    <inkscape:perspective
       id="perspective2882"
       inkscape:persp3d-origin="0.5 : 0.33333333 : 1"
       inkscape:vp_z="1 : 0.5 : 1"
       inkscape:vp_y="0 : 1000 : 0"
       inkscape:vp_x="0 : 0.5 : 1"
       sodipodi:type="inkscape:persp3d" />
    <clipPath
       id="clipPath2990"
       clipPathUnits="userSpaceOnUse">
      <path
         id="path2992"
         d="m 0,5.55859 14668.8,0 0,1342.40141 L 0,1347.96 0,5.55859 z" />
    </clipPath>
    <inkscape:perspective
       id="perspective2980"
       inkscape:persp3d-origin="0.5 : 0.33333333 : 1"
       inkscape:vp_z="1 : 0.5 : 1"
       inkscape:vp_y="0 : 1000 : 0"
       inkscape:vp_x="0 : 0.5 : 1"
       sodipodi:type="inkscape:persp3d" />
    <inkscape:perspective
       id="perspective3700"
       inkscape:persp3d-origin="0.5 : 0.33333333 : 1"
       inkscape:vp_z="1 : 0.5 : 1"
       inkscape:vp_y="0 : 1000 : 0"
       inkscape:vp_x="0 : 0.5 : 1"
       sodipodi:type="inkscape:persp3d" />
  </defs>
  <sodipodi:namedview
     id="base"
     pagecolor="#ffffff"
     bordercolor="#666666"
     borderopacity="1.0"
     inkscape:pageopacity="0.0"
     inkscape:pageshadow="2"
     inkscape:zoom="0.98994949"
     inkscape:cx="324.62114"
     inkscape:cy="495.26792"
     inkscape:document-units="px"
     inkscape:current-layer="layer1"
     showgrid="false"
     inkscape:window-width="1680"
     inkscape:window-height="1050"
     inkscape:window-x="1280"
     inkscape:window-y="0"
     inkscape:window-maximized="0" />
  <metadata
     id="metadata7">
    <rdf:RDF>
      <cc:Work
         rdf:about="">
        <dc:format>image/svg+xml</dc:format>
        <dc:type
           rdf:resource="http://purl.org/dc/dcmitype/StillImage" />
        <dc:title></dc:title>
      </cc:Work>
    </rdf:RDF>
  </metadata>
  <g
     inkscape:label="Layer 1"
     inkscape:groupmode="layer"
     id="layer1">
    <path
       id="path3004"
       style="fill:#008fff;fill-opacity:1;fill-rule:nonzero;stroke:none"
       d="m 635.63629,519.35736 0,26.25104 5.69283,0 0,-26.21172 6.32438,0 0,26.21172 18.10751,0 0,-25.93476 6.44363,0 0,25.92732 5.97106,0 0,-25.92732 6.52312,0 0,25.92732 5.97106,0 0,-31.93638 -30.63703,0 0,26.13096 -6.56729,0 0,-26.09301 -23.24386,0 0,5.65483 5.41459,0" />
    <g
       id="g3479"
       transform="matrix(0.65022293,0,0,0.65022293,292.79683,488.33136)">
      <path
         d="m 16.382418,53.146862 c 20.227717,0 41.395563,7.817057 60.846699,13.178696 l 9.826942,1.765803 c 3.266546,0.587116 8.006871,-2.323559 8.006871,-6.018493 0,-4.371138 1.809054,-7.199478 2.319152,-11.207991 0.702643,-5.519889 1.553286,-12.669412 1.553286,-18.956317 -0.383172,6.675346 0.144648,16.232917 0.144648,23.41295 0,7.17941 0.13411,4.717621 0.13411,12.296297 0,2.006053 -0.0455,9.994867 4.269504,11.184043 16.34471,4.505632 13.90916,-1.796505 22.25658,-1.796505 93.58369,0 25.37528,0 134.30647,0"
         style="fill:none;stroke:#008fff;stroke-width:1.06460214;stroke-linecap:round;stroke-linejoin:round;stroke-miterlimit:2.41420007;stroke-opacity:1;stroke-dasharray:none"
         id="path2994"
         sodipodi:nodetypes="cccsscssssc" />
      <path
         d="M 85.563601,64.571729 C 85.120079,49.699074 78.845627,37.906649 71.1702,37.906649 c -7.963812,0 -14.419936,12.69312 -14.419936,28.3508 0,15.657871 6.456124,28.350838 14.419936,28.350838 7.797084,0 14.14865,-8.690059 14.410165,-23.895355"
         style="fill:none;stroke:#191919;stroke-width:2.12920427;stroke-linecap:round;stroke-linejoin:round;stroke-miterlimit:2.41420007;stroke-opacity:1;stroke-dasharray:none"
         id="path2996" />
      <path
         d="M 54.881914,79.299544 C 50.802083,77.002951 47.558958,70.46411 47.025917,62.568119 46.343966,52.467544 50.355113,43.971314 55.984829,43.591015 c 0.855241,-0.05748 1.698077,0.07568 2.51572,0.377425"
         style="fill:none;stroke:#191919;stroke-width:1.06460214;stroke-linecap:round;stroke-linejoin:miter;stroke-miterlimit:2.41420007;stroke-opacity:1;stroke-dasharray:none"
         id="path2998" />
      <path
         d="M 43.791988,63.205718 C 41.841496,62.19146 40.40479,60.058003 40.197493,57.491991 39.901876,53.833507 42.213269,50.640912 45.40548,50.212813"
         style="fill:none;stroke:#191919;stroke-width:1.06460214;stroke-linecap:round;stroke-linejoin:miter;stroke-miterlimit:2.41420007;stroke-opacity:1;stroke-dasharray:none"
         id="path3000" />
      <path
         d="m 30.371797,54.545969 0,0.158681"
         style="fill:none;stroke:#000000;stroke-width:0.05748883;stroke-linecap:butt;stroke-linejoin:miter;stroke-miterlimit:2.41420007;stroke-opacity:1;stroke-dasharray:none"
         id="path3002" />
      <path
         d="m 110.26339,35.19666 12.42293,0 c 7.35788,0 11.04065,2.898701 11.04065,8.684608 0,2.8714 -1.25537,5.265319 -3.77521,7.162646 3.64876,1.589927 5.47745,4.421813 5.47745,8.497716 0,3.121516 -1.07672,5.607252 -3.23158,7.46382 -1.04942,0.878806 -2.17738,1.494133 -3.37384,1.842725 -1.20747,0.352471 -2.82159,0.533951 -4.85575,0.533951 l -1.93119,0 0,-8.787873 1.72619,0 c 1.01589,0 1.73338,-0.129512 2.15439,-0.38619 0.4167,-0.26324 0.62217,-0.718257 0.62217,-1.368022 0,-1.100137 -0.84824,-1.657893 -2.54761,-1.657893 l -1.95514,0 0,-9.112707 c 1.86988,0 2.79955,-0.649574 2.79955,-1.931765 0,-1.186398 -0.84441,-1.777921 -2.52606,-1.777921 l -1.88138,0 0,25.022179 -10.16557,0 0,-34.185753"
         style="fill:#262626;fill-opacity:1;fill-rule:nonzero;stroke:none"
         id="path3006" />
      <path
         d="m 151.93389,52.224326 0,9.019309 -2.92983,0 0,8.138491 -10.16557,0 0,-21.740018 c 0,-4.205799 1.14521,-7.477614 3.44664,-9.802993 2.29089,-2.334959 5.52199,-3.497888 9.67654,-3.497888 4.00751,0 6.97518,1.059952 8.89009,3.173628 1.92161,2.108886 2.87906,5.368248 2.87906,9.778565 l 0,22.088897 -10.1627,0 0,-21.414513 c 0,-1.333919 -0.16332,-2.264071 -0.478,-2.777522 -0.31804,-0.522073 -0.88274,-0.778799 -1.69938,-0.778799 -1.59351,0 -2.38668,1.19023 -2.38668,3.556321 l 0,4.256522 2.92983,0"
         style="fill:#262626;fill-opacity:1;fill-rule:nonzero;stroke:none"
         id="path3008" />
      <path
         d="m 169.89559,69.382126 10.16289,0 0,-34.185609 -10.16289,0 0,34.185609 z"
         style="fill:#262626;fill-opacity:1;fill-rule:nonzero;stroke:none"
         id="path3010" />
      <path
         d="m 186.63209,35.18277 3.31444,0 c 0.65714,0 1.14856,0.02682 1.47187,0.0819 0.31994,0.05412 0.60924,0.16668 0.86213,0.343898 0.25577,0.170512 0.46652,0.401852 0.63655,0.691626 0.16716,0.285943 0.25194,0.609245 0.25194,0.967511 0,0.387963 -0.1025,0.74575 -0.3099,1.07001 -0.21074,0.323781 -0.49429,0.568532 -0.85208,0.732818 0.50436,0.145605 0.89375,0.394188 1.16198,0.748623 0.27253,0.354435 0.40903,0.770177 0.40903,1.25058 0,0.377904 -0.0853,0.742397 -0.26247,1.100184 -0.17722,0.354435 -0.41479,0.640378 -0.71893,0.85208 -0.30318,0.214577 -0.67773,0.343898 -1.12365,0.394668 -0.27589,0.03113 -0.95075,0.0479 -2.01645,0.05843 l -2.82446,0 0,-8.291377"
         style="fill:#262626;fill-opacity:1;fill-rule:nonzero;stroke:none"
         id="path3012" />
      <path
         d="m 188.30847,36.562192 0,1.9173 1.09683,0 c 0.64996,0 1.05852,-0.0096 1.21562,-0.03017 0.28642,-0.03065 0.51105,-0.128842 0.67438,-0.296001 0.16429,-0.163327 0.24571,-0.378383 0.24571,-0.647562 0,-0.255288 -0.068,-0.466512 -0.20835,-0.626487 -0.14608,-0.160453 -0.35395,-0.255289 -0.63319,-0.289774 -0.16381,-0.01724 -0.64421,-0.02682 -1.43115,-0.02682 l -0.96033,0"
         style="fill:#ffffff;fill-opacity:1;fill-rule:nonzero;stroke:none"
         id="path3014" />
      <path
         d="m 188.30847,39.859871 0,2.21378 1.5461,0 c 0.60637,0 0.98811,-0.01389 1.15144,-0.0479 0.24906,-0.04406 0.45022,-0.156622 0.60685,-0.330008 0.15614,-0.177217 0.23756,-0.412389 0.23756,-0.705516 0,-0.248584 -0.0642,-0.459808 -0.18344,-0.633193 -0.12262,-0.173386 -0.29648,-0.303186 -0.52112,-0.381736 -0.22894,-0.07807 -0.72611,-0.115431 -1.48479,-0.115431 l -1.3526,0"
         style="fill:#ffffff;fill-opacity:1;fill-rule:nonzero;stroke:none"
         id="path3016" />
      <path
         d="m 194.98142,36.654153 1.58751,0 0,-1.471325 -1.58751,0 0,1.471325 z"
         style="fill:#262626;fill-opacity:1;fill-rule:nonzero;stroke:none"
         id="path3018" />
      <path
         d="m 194.98142,43.474626 1.58751,0 0,-6.005991 -1.58751,0 0,6.005991 z"
         style="fill:#262626;fill-opacity:1;fill-rule:nonzero;stroke:none"
         id="path3020" />
      <path
         d="m 197.82983,40.384339 0.003,-0.09867 0.003,-0.09819 0.007,-0.09915 0.0139,-0.09579 0.0139,-0.09867 0.0168,-0.09531 0.0168,-0.09531 0.024,-0.09867 0.0273,-0.09579 0.0268,-0.09484 0.0345,-0.09579 0.034,-0.09196 0.0378,-0.09531 0.0407,-0.09196 0.0436,-0.09531 0.0484,-0.09196 c 0.25864,-0.493813 0.63032,-0.872196 1.10689,-1.127964 0.47705,-0.261516 1.0087,-0.395147 1.59831,-0.395147 0.90524,0 1.65195,0.29648 2.23437,0.888961 0.57907,0.589606 0.86837,1.335356 0.86837,2.234854 0,0.909556 -0.29265,1.662969 -0.87843,2.258803 -0.58625,0.599665 -1.3253,0.896145 -2.21473,0.896145 -0.55225,0 -1.07289,-0.122616 -1.57389,-0.371678 -0.50004,-0.248583 -0.88225,-0.613076 -1.14089,-1.09731 -0.25912,-0.479924 -0.39132,-1.062347 -0.39132,-1.753973"
         style="fill:#262626;fill-opacity:1;fill-rule:nonzero;stroke:none"
         id="path3022" />
      <path
         d="m 199.45784,40.469595 0.003,0.0546 0,0.0546 0.004,0.05412 0,0.0546 0.006,0.05173 0.004,0.05077 0.003,0.05077 0.007,0.0479 0.007,0.05077 0.0101,0.0479 0.007,0.0479 0.0105,0.04407 0.0105,0.0479 0.0105,0.04407 0.0129,0.04406 0.0139,0.04119 0.0129,0.04406 0.0144,0.04119 0.0129,0.04071 0.0177,0.04071 0.0163,0.03736 0.0172,0.03832 0.0206,0.03688 0.0211,0.03784 0.0168,0.03688 0.024,0.03496 0.0196,0.03353 0.0244,0.03449 0.024,0.03065 0.0235,0.03353 0.0239,0.03161 0.0273,0.02634 c 0.28259,0.316597 0.63319,0.47705 1.04558,0.47705 0.41574,0 0.76347,-0.160453 1.04223,-0.47705 0.28307,-0.316596 0.42628,-0.773051 0.42628,-1.379421 0,-0.586254 -0.14321,-1.039356 -0.42628,-1.355952 -0.27876,-0.317076 -0.62649,-0.47705 -1.04223,-0.47705 -0.41239,0 -0.76299,0.159974 -1.04558,0.47705 -0.28307,0.316596 -0.4258,0.773529 -0.4258,1.369363"
         style="fill:#ffffff;fill-opacity:1;fill-rule:nonzero;stroke:none"
         id="path3024" />
      <path
         d="m 205.09191,41.259888 3.12076,0 0,-1.587134 -3.12076,0 0,1.587134 z"
         style="fill:#262626;fill-opacity:1;fill-rule:nonzero;stroke:none"
         id="path3026" />
      <path
         d="m 209.09175,43.474626 1.67246,0 0,-8.291712 -1.67246,0 0,8.291712 z"
         style="fill:#262626;fill-opacity:1;fill-rule:nonzero;stroke:none"
         id="path3028" />
      <path
         d="m 217.81181,43.474626 -1.5873,0 0,-3.066818 c 0,-0.650914 -0.0369,-1.070009 -0.10154,-1.260159 -0.0685,-0.187275 -0.18057,-0.336713 -0.33384,-0.442564 -0.15327,-0.105852 -0.33719,-0.160454 -0.55224,-0.160454 -0.27637,0 -0.52064,0.0752 -0.73905,0.228467 -0.21841,0.149916 -0.36784,0.351082 -0.44975,0.599665 -0.0814,0.248583 -0.12261,0.707912 -0.12261,1.379422 l 0,2.722441 -1.5873,0 0,-6.006231 1.47474,0 0,0.881776 c 0.52447,-0.681089 1.18544,-1.022113 1.97909,-1.022113 0.35108,0 0.67151,0.06514 0.96032,0.191586 0.28978,0.125968 0.51154,0.286422 0.65858,0.483756 0.14896,0.197334 0.25481,0.419095 0.31277,0.667199 0.0575,0.249062 0.0881,0.602539 0.0881,1.066178 l 0,3.73737"
         style="fill:#262626;fill-opacity:1;fill-rule:nonzero;stroke:none"
         id="path3030" />
      <path
         d="m 218.86505,41.757055 1.59448,-0.241399 c 0.0647,0.309412 0.20404,0.544105 0.41191,0.70408 0.20787,0.160453 0.49812,0.241877 0.8722,0.241877 0.40903,0 0.71845,-0.07807 0.92344,-0.228466 0.14226,-0.105373 0.21075,-0.248104 0.21075,-0.421969 0,-0.122615 -0.0374,-0.225114 -0.11256,-0.303664 -0.0776,-0.07472 -0.25529,-0.142732 -0.53117,-0.207393 -1.28124,-0.283068 -2.095,-0.54171 -2.4389,-0.77305 -0.47369,-0.323781 -0.70887,-0.776883 -0.70887,-1.355474 0,-0.51872 0.20117,-0.954578 0.61356,-1.309013 0.41191,-0.353956 1.04941,-0.535005 1.91059,-0.535005 0.82191,0 1.43403,0.136505 1.83636,0.40281 0.39802,0.269179 0.67103,0.663847 0.82095,1.188793 l -1.49534,0.275885 c -0.0647,-0.23182 -0.18727,-0.41239 -0.36449,-0.534526 -0.18105,-0.125968 -0.43586,-0.187276 -0.76682,-0.187276 -0.42245,0 -0.71845,0.05748 -0.90237,0.177218 -0.11927,0.08142 -0.17722,0.186796 -0.17722,0.319949 0,0.11591 0.0512,0.207871 0.15662,0.285463 0.14321,0.109684 0.6375,0.255768 1.48479,0.450228 0.84538,0.190629 1.43786,0.424843 1.77218,0.705038 0.33336,0.285464 0.50052,0.677737 0.50052,1.182088 0,0.551289 -0.2323,1.025465 -0.69546,1.420133 -0.45598,0.399458 -1.13659,0.593439 -2.03656,0.593439 -0.82095,0 -1.46468,-0.163807 -1.94556,-0.497646 -0.47657,-0.330486 -0.78646,-0.780235 -0.93303,-1.352599"
         style="fill:#262626;fill-opacity:1;fill-rule:nonzero;stroke:none"
         id="path3032" />
      <path
         d="m 225.81772,37.468395 1.48527,0 0,0.881776 c 0.18728,-0.303185 0.44975,-0.547937 0.77688,-0.735691 0.33097,-0.190629 0.69498,-0.286422 1.09396,-0.286422 0.69738,0 1.29082,0.275884 1.77409,0.821426 0.48759,0.547937 0.72899,1.308535 0.72899,2.285146 0,1.002476 -0.24475,1.782711 -0.73234,2.337353 -0.49046,0.558953 -1.08677,0.834838 -1.78127,0.834838 -0.33336,0 -0.63368,-0.06466 -0.90621,-0.193981 -0.26582,-0.136027 -0.54889,-0.36162 -0.84873,-0.681569 l 0,3.028501 -1.59064,0 0,-8.291377"
         style="fill:#262626;fill-opacity:1;fill-rule:nonzero;stroke:none"
         id="path3034" />
      <path
         d="m 227.3916,40.367575 0,0.06466 0.004,0.06083 0,0.06179 0.003,0.05795 0.003,0.05795 0.003,0.05748 0.007,0.05891 0.004,0.05364 0.007,0.0546 0.01,0.0546 0.007,0.05077 0.0105,0.05125 0.0101,0.05077 0.0105,0.0479 0.0101,0.05077 0.0139,0.04454 0.009,0.0479 0.0148,0.04407 0.0168,0.04406 0.0139,0.04454 0.0163,0.04119 0.0177,0.04023 0.0168,0.04119 0.0172,0.03736 0.0201,0.04119 0.0206,0.03449 0.0206,0.03688 0.0201,0.03401 0.024,0.03401 0.0239,0.03401 0.0239,0.03113 0.0239,0.0297 c 0.26535,0.320907 0.59248,0.484714 0.97709,0.484714 0.36833,0 0.67822,-0.146564 0.92057,-0.442565 0.24524,-0.296958 0.37072,-0.784067 0.37072,-1.455098 0,-0.633193 -0.12548,-1.100663 -0.38125,-1.403849 -0.25194,-0.306538 -0.56566,-0.459807 -0.93686,-0.459807 -0.38796,0 -0.71174,0.149438 -0.96751,0.449749 -0.25529,0.299833 -0.38509,0.746229 -0.38509,1.332483"
         style="fill:#ffffff;fill-opacity:1;fill-rule:nonzero;stroke:none"
         id="path3036" />
      <path
         d="m 232.94042,36.654153 1.58769,0 0,-1.471325 -1.58769,0 0,1.471325 z"
         style="fill:#262626;fill-opacity:1;fill-rule:nonzero;stroke:none"
         id="path3038" />
      <path
         d="m 232.94042,43.474626 1.58769,0 0,-6.005991 -1.58769,0 0,6.005991 z"
         style="fill:#262626;fill-opacity:1;fill-rule:nonzero;stroke:none"
         id="path3040" />
      <path
         d="m 237.68027,43.474626 -1.58778,0 0,-6.006231 1.47522,0 0,0.851601 c 0.25193,-0.402331 0.47657,-0.667678 0.68061,-0.797478 0.20164,-0.125968 0.42915,-0.19446 0.68492,-0.19446 0.36449,0 0.71174,0.102978 1.04606,0.303185 l -0.49046,1.383254 c -0.2663,-0.170033 -0.51824,-0.259121 -0.74623,-0.259121 -0.22128,0 -0.40904,0.06131 -0.56566,0.184881 -0.15662,0.122136 -0.27588,0.343418 -0.36497,0.664326 -0.0881,0.31947 -0.13171,0.990501 -0.13171,2.012614 l 0,1.85695"
         style="fill:#262626;fill-opacity:1;fill-rule:nonzero;stroke:none"
         id="path3042" />
      <path
         d="m 244.14199,41.563553 1.58394,0.261515 c -0.20404,0.582901 -0.52494,1.022113 -0.96416,1.325298 -0.43921,0.306538 -0.9881,0.456455 -1.64907,0.456455 -1.04559,0 -1.81528,-0.340066 -2.31964,-1.021634 -0.39514,-0.548895 -0.59248,-1.23669 -0.59248,-2.068175 0,-0.997685 0.26152,-1.7784 0.77976,-2.343579 0.52159,-0.561827 1.17921,-0.844896 1.97621,-0.844896 0.89184,0 1.59735,0.29648 2.11464,0.888961 0.51536,0.589606 0.76012,1.492457 0.74,2.712383 l -3.98212,0 c 0.0134,0.469865 0.13938,0.837711 0.38509,1.096353 0.24475,0.262473 0.55176,0.395146 0.91626,0.395146 0.2481,0 0.45645,-0.06801 0.62648,-0.204039 0.17004,-0.136505 0.29984,-0.354914 0.38509,-0.653788"
         style="fill:#262626;fill-opacity:1;fill-rule:nonzero;stroke:none"
         id="path3044" />
      <path
         d="m 244.23395,39.955185 -0.003,-0.04502 0,-0.04071 -0.004,-0.04071 -0.003,-0.04071 -0.004,-0.04119 -0.007,-0.04071 -0.003,-0.03688 -0.007,-0.03784 -0.007,-0.03736 -0.007,-0.03736 -0.007,-0.03736 -0.007,-0.03449 -0.01,-0.03736 -0.0105,-0.03353 -0.01,-0.03448 -0.0105,-0.03065 -0.011,-0.03401 -0.0129,-0.03065 -0.0134,-0.03065 -0.0105,-0.03065 -0.0168,-0.03113 -0.0139,-0.0297 -0.0139,-0.0273 -0.0168,-0.0273 -0.0172,-0.02826 -0.0163,-0.02682 -0.0177,-0.02634 -0.0168,-0.02443 -0.0206,-0.02347 -0.0206,-0.0273 -0.0206,-0.02107 -0.0206,-0.02347 c -0.22464,-0.238046 -0.50004,-0.36114 -0.82382,-0.36114 -0.34725,0 -0.63367,0.129321 -0.85831,0.381736 -0.22895,0.252415 -0.34102,0.595833 -0.33384,1.028818 l 2.37423,0"
         style="fill:#ffffff;fill-opacity:1;fill-rule:nonzero;stroke:none"
         id="path3046" />
      <path
         d="m 252.61394,43.474626 -1.47426,0 0,-0.882734 c -0.24619,0.340545 -0.53548,0.596792 -0.8698,0.766345 -0.33384,0.166681 -0.6672,0.249063 -1.00822,0.249063 -0.69163,0 -1.28076,-0.276364 -1.77457,-0.835317 -0.49046,-0.554642 -0.73904,-1.331525 -0.73904,-2.322505 0,-1.021634 0.24139,-1.795643 0.72228,-2.323463 0.47657,-0.527341 1.08246,-0.797478 1.81576,-0.797478 0.66767,0 1.24962,0.279237 1.74008,0.838669 l 0,-2.983957 1.58777,0 0,8.291377"
         style="fill:#262626;fill-opacity:1;fill-rule:nonzero;stroke:none"
         id="path3048" />
      <path
         d="m 248.37318,40.339795 0,0.119741 0.002,0.05412 0,0.05795 0.004,0.0546 0.003,0.05364 0.003,0.05508 0.003,0.05125 0.004,0.05125 0.006,0.05077 0.003,0.0479 0.007,0.0479 0.007,0.04742 0.006,0.0479 0.007,0.04406 0.0101,0.04407 0.007,0.04454 0.0101,0.04023 0.011,0.04167 0.0101,0.03688 0.01,0.04071 0.011,0.03784 0.0134,0.03784 0.0105,0.03401 0.0129,0.03448 0.0139,0.03353 0.0129,0.03449 0.0139,0.03065 0.0144,0.03065 0.0168,0.03065 0.0134,0.02634 0.0172,0.02778 c 0.25481,0.415263 0.61643,0.623613 1.07289,0.623613 0.36832,0 0.67821,-0.156622 0.93685,-0.46747 0.25194,-0.312765 0.38509,-0.775925 0.38509,-1.392833 0,-0.691148 -0.12884,-1.189272 -0.37503,-1.491978 -0.24858,-0.303186 -0.56901,-0.456455 -0.95649,-0.456455 -0.37886,0 -0.69211,0.153269 -0.9474,0.449749 -0.25193,0.299354 -0.38125,0.748624 -0.38125,1.345415"
         style="fill:#ffffff;fill-opacity:1;fill-rule:nonzero;stroke:none"
         id="path3050" />
      <path
         d="m 186.57701,56.41245 1.67283,0 0,-8.292095 -1.67283,0 0,8.292095 z"
         style="fill:#262626;fill-opacity:1;fill-rule:nonzero;stroke:none"
         id="path3052" />
      <path
         d="m 195.68311,56.41245 -1.58777,0 0,-3.066339 c 0,-0.64713 -0.0335,-1.066225 -0.10155,-1.260255 -0.0685,-0.1867 -0.17721,-0.337335 -0.33,-0.442851 -0.15375,-0.105516 -0.33815,-0.156814 -0.55225,-0.156814 -0.27636,0 -0.52111,0.07525 -0.73952,0.224731 -0.21793,0.153796 -0.36785,0.351369 -0.44975,0.599809 -0.0819,0.248679 -0.12214,0.708917 -0.12214,1.383588 l 0,2.718515 -1.5916,0 0,-6.005992 1.47809,0 0,0.882159 c 0.52207,-0.681568 1.18256,-1.018521 1.98052,-1.018521 0.34677,0 0.67007,0.06097 0.96033,0.187468 0.28929,0.129656 0.50722,0.289247 0.65714,0.48342 0.14991,0.197429 0.25193,0.422495 0.31276,0.670743 0.0584,0.248679 0.0857,0.603402 0.0857,1.066274 l 0,3.734065"
         style="fill:#262626;fill-opacity:1;fill-rule:nonzero;stroke:none"
         id="path3054" />
      <path
         d="m 196.98829,50.406459 0.88225,0 0,-0.452767 c 0,-0.50459 0.0508,-0.882494 0.1595,-1.131365 0.1092,-0.248439 0.30702,-0.452766 0.59344,-0.609915 0.28929,-0.156622 0.65379,-0.231197 1.09348,-0.231197 0.45597,0 0.89949,0.06447 1.33152,0.200495 l -0.2141,1.110626 c -0.25241,-0.06121 -0.49764,-0.09167 -0.72946,-0.09167 -0.23182,0 -0.39515,0.05441 -0.49765,0.160119 -0.0987,0.109108 -0.14943,0.316979 -0.14943,0.62026 l 0,0.425801 1.18879,0 0,1.247179 -1.18879,0 0,4.758813 -1.5873,0 0,-4.758813 -0.88225,0 0,-1.247179"
         style="fill:#262626;fill-opacity:1;fill-rule:nonzero;stroke:none"
         id="path3056" />
      <path
         d="m 201.55954,53.322738 0,-0.09934 0.004,-0.09862 0.01,-0.0956 0.011,-0.09876 0.0134,-0.09881 0.0168,-0.09484 0.0201,-0.09541 0.0206,-0.09919 0.0273,-0.09503 0.0278,-0.09522 0.0335,-0.09244 0.034,-0.09503 0.0378,-0.09527 0.0407,-0.09186 0.0441,-0.09187 0.0484,-0.09541 c 0.25864,-0.490557 0.62984,-0.868844 1.10641,-1.127437 0.47705,-0.262665 1.00822,-0.391603 1.59783,-0.391603 0.90908,0 1.65195,0.296001 2.23485,0.88556 0.57955,0.589128 0.86885,1.335452 0.86885,2.237824 0,0.906491 -0.29313,1.659377 -0.87938,2.258467 -0.58578,0.596457 -1.32147,0.892984 -2.21043,0.892984 -0.55225,0 -1.07624,-0.123285 -1.57723,-0.371198 -0.50148,-0.249206 -0.88226,-0.61346 -1.1409,-1.09415 -0.25912,-0.480259 -0.38892,-1.066034 -0.38892,-1.757181"
         style="fill:#262626;fill-opacity:1;fill-rule:nonzero;stroke:none"
         id="path3058" />
      <path
         d="m 203.18754,53.407706 0,0.109061 0.004,0.05427 0.003,0.05479 0.004,0.05149 0.003,0.05087 0.007,0.05125 0.007,0.05053 0.007,0.0479 0.007,0.04809 0.0101,0.04751 0.0101,0.0479 0.0101,0.04397 0.0101,0.04435 0.0105,0.04454 0.0134,0.0445 0.0134,0.04042 0.0139,0.04095 0.0172,0.04042 0.0172,0.04153 0.0163,0.04042 0.0177,0.0376 0.0163,0.03726 0.0211,0.03702 0.0201,0.03463 0.0206,0.03367 0.0239,0.03463 0.0201,0.03386 0.0239,0.03406 0.0278,0.03084 0.023,0.03089 0.0283,0.03027 c 0.27876,0.316597 0.62984,0.473745 1.04511,0.473745 0.41622,0 0.75964,-0.157148 1.03935,-0.473745 0.28211,-0.316357 0.4258,-0.776595 0.4258,-1.379613 0,-0.585823 -0.14369,-1.042134 -0.4258,-1.359257 -0.27971,-0.316596 -0.62313,-0.47317 -1.03935,-0.47317 -0.41527,0 -0.76635,0.156574 -1.04511,0.47317 -0.28307,0.316932 -0.42676,0.777362 -0.42676,1.369555"
         style="fill:#ffffff;fill-opacity:1;fill-rule:nonzero;stroke:none"
         id="path3060" />
      <path
         d="m 210.91087,56.41245 -1.59065,0 0,-6.005991 1.47474,0 0,0.851505 c 0.25193,-0.401709 0.48327,-0.667774 0.68157,-0.797238 0.20403,-0.125729 0.4325,-0.190437 0.68779,-0.190437 0.36449,0 0.71174,0.09876 1.04606,0.299737 l -0.49094,1.38263 c -0.26582,-0.169889 -0.51393,-0.255049 -0.74575,-0.255049 -0.22463,0 -0.41239,0.05748 -0.56566,0.180187 -0.15662,0.122759 -0.27588,0.344472 -0.36497,0.664373 -0.0881,0.320141 -0.13219,0.991603 -0.13219,2.013333 l 0,1.85695"
         style="fill:#262626;fill-opacity:1;fill-rule:nonzero;stroke:none"
         id="path3062" />
      <path
         d="m 214.164,50.406459 1.46468,0 0,0.817451 c 0.52111,-0.636306 1.14808,-0.95343 1.87371,-0.95343 0.38509,0 0.7151,0.07802 0.99817,0.235364 0.28594,0.159592 0.51776,0.398116 0.69785,0.718066 0.26295,-0.31995 0.54938,-0.558474 0.85208,-0.718066 0.30319,-0.15734 0.63367,-0.235364 0.97757,-0.235364 0.44257,0 0.8176,0.08885 1.12078,0.269035 0.30319,0.177553 0.53165,0.442661 0.68492,0.787085 0.10921,0.255049 0.16333,0.671318 0.16333,1.246652 l 0,3.839582 -1.58777,0 0,-3.434137 c 0,-0.59593 -0.0575,-0.980779 -0.1662,-1.154595 -0.14609,-0.225258 -0.37168,-0.337528 -0.67487,-0.337528 -0.22463,0 -0.43298,0.06437 -0.63031,0.204327 -0.19782,0.133201 -0.3372,0.333792 -0.42197,0.596456 -0.0891,0.261947 -0.13316,0.673905 -0.13316,1.239516 l 0,2.885961 -1.59064,0 0,-3.291597 c 0,-0.585775 -0.0278,-0.960566 -0.0819,-1.130216 -0.0546,-0.170655 -0.14609,-0.29715 -0.26248,-0.378526 -0.12261,-0.08511 -0.27923,-0.125921 -0.48663,-0.125921 -0.24235,0 -0.46411,0.06437 -0.6581,0.197765 -0.19733,0.133009 -0.34054,0.323302 -0.4258,0.572508 -0.0814,0.248296 -0.12549,0.657668 -0.12549,1.235972 l 0,2.920206 -1.58777,0 0,-6.005992"
         style="fill:#262626;fill-opacity:1;fill-rule:nonzero;stroke:none"
         id="path3064" />
      <path
         d="m 226.15539,52.239269 -1.44169,-0.262473 c 0.16381,-0.579453 0.43969,-1.008079 0.83532,-1.291148 0.3985,-0.27598 0.98427,-0.415359 1.76451,-0.415359 0.71174,0 1.23669,0.08138 1.58394,0.25184 0.34725,0.166488 0.59248,0.378096 0.73234,0.640617 0.14321,0.255384 0.21122,0.729081 0.21122,1.420421 l -0.0172,1.856902 c 0,0.524611 0.0278,0.915831 0.0786,1.168437 0.0508,0.248105 0.14656,0.517666 0.28594,0.803944 l -1.57388,0 c -0.0407,-0.106091 -0.0915,-0.262856 -0.15327,-0.470536 -0.0239,-0.09507 -0.0441,-0.15643 -0.0541,-0.187084 -0.27253,0.265108 -0.56231,0.462873 -0.8722,0.595882 -0.30654,0.130039 -0.6375,0.194412 -0.9881,0.194412 -0.61979,0 -1.10737,-0.16692 -1.46181,-0.500711 -0.35731,-0.337479 -0.53452,-0.760167 -0.53452,-1.274288 0,-0.337528 0.0819,-0.640426 0.24283,-0.906108 0.1595,-0.265299 0.39132,-0.470536 0.68013,-0.609771 0.29313,-0.142732 0.71606,-0.265443 1.26447,-0.371343 0.7424,-0.139235 1.25681,-0.268891 1.54323,-0.387866 l 0,-0.160166 c 0,-0.307017 -0.0747,-0.52145 -0.22511,-0.654651 -0.15375,-0.129273 -0.43586,-0.194029 -0.85496,-0.194029 -0.28259,0 -0.50435,0.05523 -0.66097,0.167495 -0.15997,0.108677 -0.28594,0.306442 -0.38461,0.585775"
         style="fill:#262626;fill-opacity:1;fill-rule:nonzero;stroke:none"
         id="path3066" />
      <path
         d="m 228.28104,53.526681 -0.0374,0.01346 -0.0441,0.01384 -0.045,0.01332 -0.0479,0.01437 -0.0508,0.01331 -0.0546,0.01384 -0.0541,0.01365 -0.0613,0.01648 -0.0618,0.01384 -0.0647,0.017 -0.0685,0.01705 -0.0675,0.01365 -0.0747,0.017 -0.0752,0.01705 -0.0781,0.01648 -0.0819,0.02093 c -0.44017,0.09186 -0.72947,0.186892 -0.86501,0.272052 -0.20548,0.150396 -0.31037,0.337528 -0.31037,0.56221 0,0.225258 0.0809,0.416126 0.24858,0.575861 0.16716,0.163711 0.37838,0.245518 0.63367,0.245518 0.28595,0 0.55848,-0.09546 0.82191,-0.283117 0.19015,-0.143115 0.31612,-0.316357 0.37694,-0.527389 0.0407,-0.13344 0.0618,-0.392369 0.0618,-0.77329 l 0,-0.317507"
         style="fill:#ffffff;fill-opacity:1;fill-rule:nonzero;stroke:none"
         id="path3068" />
      <path
         d="m 234.54879,50.406459 0,1.2672 -1.0863,0 0,2.418633 c 0,0.490174 0.0134,0.776595 0.034,0.858211 0.0196,0.07855 0.0675,0.146468 0.1389,0.201836 0.0757,0.05072 0.16428,0.07822 0.26966,0.07822 0.14991,0 0.36114,-0.05201 0.6399,-0.153412 l 0.1365,1.232953 c -0.3712,0.156814 -0.79029,0.235556 -1.25728,0.235556 -0.28547,0 -0.54411,-0.0479 -0.77258,-0.139571 -0.23182,-0.09953 -0.39897,-0.225449 -0.5077,-0.378095 -0.1092,-0.150252 -0.18057,-0.35774 -0.22511,-0.616477 -0.0307,-0.18469 -0.0474,-0.559241 -0.0474,-1.121116 l 0,-2.616159 -0.73234,0 0,-1.2672 0.73234,0 0,-1.195738 1.59112,-0.92632 0,2.122058 1.0863,0"
         style="fill:#262626;fill-opacity:1;fill-rule:nonzero;stroke:none"
         id="path3070" />
      <path
         d="m 236.04077,49.592073 1.58732,0 0,-1.471699 -1.58732,0 0,1.471699 z"
         style="fill:#262626;fill-opacity:1;fill-rule:nonzero;stroke:none"
         id="path3072" />
      <path
         d="m 236.04077,56.41245 1.58732,0 0,-6.005991 -1.58732,0 0,6.005991 z"
         style="fill:#262626;fill-opacity:1;fill-rule:nonzero;stroke:none"
         id="path3074" />
      <path
         d="m 239.27714,53.322738 0,-0.09934 0.007,-0.09862 0.007,-0.0956 0.0105,-0.09876 0.0125,-0.09881 0.0177,-0.09484 0.0201,-0.09541 0.0239,-0.09919 0.024,-0.09503 0.0311,-0.09522 0.0302,-0.09244 0.034,-0.09503 0.0407,-0.09527 0.0412,-0.09186 0.0417,-0.09187 0.0469,-0.09541 c 0.26199,-0.490557 0.6308,-0.868844 1.10737,-1.127437 0.47657,-0.262665 1.00822,-0.391603 1.59735,-0.391603 0.90668,0 1.65243,0.296001 2.23485,0.88556 0.57907,0.589128 0.86885,1.335452 0.86885,2.237824 0,0.906491 -0.29313,1.659377 -0.87938,2.258467 -0.58578,0.596457 -1.32147,0.892984 -2.21378,0.892984 -0.55177,0 -1.07337,-0.123285 -1.57341,-0.371198 -0.49812,-0.249206 -0.87986,-0.61346 -1.14185,-1.09415 -0.25912,-0.480259 -0.38844,-1.066034 -0.38844,-1.757181"
         style="fill:#262626;fill-opacity:1;fill-rule:nonzero;stroke:none"
         id="path3076" />
      <path
         d="m 240.9061,53.407706 0,0.109061 0.003,0.05427 0.004,0.05479 0.003,0.05149 0.004,0.05087 0.007,0.05125 0.006,0.05053 0.007,0.0479 0.007,0.04809 0.0105,0.04751 0.007,0.0479 0.0101,0.04397 0.0139,0.04435 0.0101,0.04454 0.0139,0.0445 0.0134,0.04042 0.0134,0.04095 0.0168,0.04042 0.0177,0.04153 0.0134,0.04042 0.0201,0.0376 0.0172,0.03726 0.0201,0.03702 0.0211,0.03463 0.0201,0.03367 0.024,0.03463 0.0206,0.03386 0.024,0.03406 0.0239,0.03084 0.0263,0.03089 0.0273,0.03027 c 0.27972,0.316597 0.63032,0.473745 1.04606,0.473745 0.41623,0 0.763,-0.157148 1.04271,-0.473745 0.28211,-0.316357 0.42245,-0.776595 0.42245,-1.379613 0,-0.585823 -0.14034,-1.042134 -0.42245,-1.359257 -0.27971,-0.316596 -0.62648,-0.47317 -1.04271,-0.47317 -0.41574,0 -0.76634,0.156574 -1.04606,0.47317 -0.28594,0.316932 -0.42484,0.777362 -0.42484,1.369555"
         style="fill:#ffffff;fill-opacity:1;fill-rule:nonzero;stroke:none"
         id="path3078" />
      <path
         d="m 252.5694,56.41245 -1.5873,0 0,-3.066339 c 0,-0.64713 -0.034,-1.066225 -0.10154,-1.260255 -0.0685,-0.1867 -0.18153,-0.337335 -0.33432,-0.442851 -0.15326,-0.105516 -0.33383,-0.156814 -0.54841,-0.156814 -0.27972,0 -0.52495,0.07525 -0.74288,0.224731 -0.21745,0.153796 -0.36832,0.351369 -0.44975,0.599809 -0.0814,0.248679 -0.12261,0.708917 -0.12261,1.383588 l 0,2.718515 -1.58729,0 0,-6.005992 1.47473,0 0,0.882159 c 0.52447,-0.681568 1.1864,-1.018521 1.97909,-1.018521 0.35108,0 0.67151,0.06097 0.96464,0.187468 0.28594,0.129656 0.5077,0.289247 0.65762,0.48342 0.14608,0.197429 0.25193,0.422495 0.30989,0.670743 0.058,0.248679 0.0881,0.603402 0.0881,1.066274 l 0,3.734065"
         style="fill:#262626;fill-opacity:1;fill-rule:nonzero;stroke:none"
         id="path3080" />
      <path
         d="m 186.62874,69.349939 0,-8.290946 2.68412,0 c 1.01876,0 1.68357,0.04397 1.98963,0.126112 0.47752,0.12252 0.87555,0.394572 1.19549,0.810267 0.32043,0.419095 0.48376,0.954004 0.48376,1.614641 0,0.508183 -0.0953,0.937384 -0.27876,1.284443 -0.18823,0.347968 -0.41909,0.616477 -0.70599,0.817786 -0.28259,0.197382 -0.57189,0.327038 -0.86502,0.391602 -0.40233,0.07841 -0.98092,0.119359 -1.74056,0.119359 l -1.0906,0 0,3.126736 -1.67207,0"
         style="fill:#262626;fill-opacity:1;fill-rule:nonzero;stroke:none"
         id="path3082" />
      <path
         d="m 188.30081,62.462363 0,2.350142 0.91674,0 c 0.66097,0 1.10354,-0.03985 1.32146,-0.128746 0.22512,-0.0855 0.39898,-0.222049 0.52447,-0.405589 0.12645,-0.183348 0.19159,-0.398739 0.19159,-0.647945 0,-0.298778 -0.0891,-0.547984 -0.26631,-0.745749 -0.17721,-0.194221 -0.40185,-0.316357 -0.67007,-0.363727 -0.205,-0.04134 -0.60302,-0.05839 -1.20699,-0.05839 l -0.81089,0"
         style="fill:#ffffff;fill-opacity:1;fill-rule:nonzero;stroke:none"
         id="path3084" />
      <path
         d="m 196.43269,69.349939 -1.58729,0 0,-6.005225 1.47473,0 0,0.854667 c 0.25242,-0.405445 0.4804,-0.670553 0.68157,-0.796664 0.20069,-0.129656 0.42867,-0.194173 0.68492,-0.194173 0.36402,0 0.71174,0.102307 1.04894,0.30309 l -0.49382,1.382822 c -0.26582,-0.173625 -0.51489,-0.258929 -0.74671,-0.258929 -0.2208,0 -0.40855,0.05834 -0.5647,0.183731 -0.15758,0.119885 -0.27636,0.341407 -0.36497,0.661548 -0.0886,0.32311 -0.13267,0.99462 -0.13267,2.013524 l 0,1.855609"
         style="fill:#262626;fill-opacity:1;fill-rule:nonzero;stroke:none"
         id="path3086" />
      <path
         d="m 199.61781,66.260227 0.004,-0.09857 0.003,-0.09507 0.007,-0.09896 0.0139,-0.09843 0.0129,-0.09579 0.0168,-0.09895 0.0177,-0.09484 0.024,-0.09598 0.0268,-0.0945 0.0273,-0.09618 0.034,-0.09522 0.034,-0.09503 0.0378,-0.09187 0.0407,-0.09579 0.0441,-0.09186 0.0484,-0.09579 c 0.25865,-0.489646 0.62984,-0.868125 1.10689,-1.127485 0.47658,-0.258737 1.00775,-0.391363 1.59783,-0.391363 0.90573,0 1.65196,0.296145 2.23438,0.886278 0.57907,0.588937 0.86884,1.33416 0.86884,2.23725 0,0.906107 -0.2936,1.659185 -0.87938,2.25885 -0.58577,0.595498 -1.32434,0.89581 -2.21426,0.89581 -0.55177,0 -1.0724,-0.122951 -1.5734,-0.374743 -0.50052,-0.248871 -0.88225,-0.612932 -1.1409,-1.093623 -0.25912,-0.480067 -0.39227,-1.066225 -0.39227,-1.758139"
         style="fill:#262626;fill-opacity:1;fill-rule:nonzero;stroke:none"
         id="path3088" />
      <path
         d="m 201.24965,66.346105 0,0.112653 0.003,0.05407 0.003,0.05072 0.003,0.05144 0.003,0.05441 0.007,0.0479 0.006,0.05149 0.007,0.04732 0.007,0.04732 0.0101,0.04828 0.007,0.04771 0.0101,0.04378 0.0139,0.04397 0.0101,0.04474 0.0129,0.0445 0.0144,0.04042 0.0139,0.04474 0.0163,0.04057 0.0177,0.03779 0.0172,0.04062 0.0168,0.03741 0.0168,0.03765 0.0201,0.03722 0.0206,0.03405 0.0206,0.03405 0.0235,0.03405 0.0206,0.03405 0.0244,0.03405 0.023,0.03084 0.0278,0.0307 0.024,0.03032 c 0.28306,0.316931 0.63367,0.473697 1.04606,0.473697 0.41574,0 0.76299,-0.156766 1.04223,-0.473697 0.28259,-0.316405 0.4258,-0.776835 0.4258,-1.379087 0,-0.586397 -0.14321,-1.0429 -0.4258,-1.359831 -0.27924,-0.313005 -0.62649,-0.473362 -1.04223,-0.473362 -0.41239,0 -0.763,0.160357 -1.04606,0.473362 -0.28307,0.316931 -0.42245,0.776834 -0.42245,1.370081"
         style="fill:#ffffff;fill-opacity:1;fill-rule:nonzero;stroke:none"
         id="path3090" />
      <path
         d="m 212.86936,65.122874 -1.56718,0.27919 c -0.0508,-0.309843 -0.17338,-0.548225 -0.35731,-0.70499 -0.18727,-0.157005 -0.4325,-0.238765 -0.72898,-0.238765 -0.39563,0 -0.71222,0.136793 -0.94692,0.408989 -0.23565,0.275789 -0.35491,0.732483 -0.35491,1.372381 0,0.712462 0.12309,1.216477 0.36114,1.509652 0.239,0.293175 0.55943,0.439308 0.96416,0.439308 0.30366,0 0.54506,-0.08454 0.73952,-0.255193 0.1935,-0.170608 0.33097,-0.4668 0.40904,-0.882351 l 1.55951,0.261946 c -0.15998,0.715623 -0.47322,1.26083 -0.9335,1.625467 -0.45885,0.364109 -1.07624,0.548224 -1.84977,0.548224 -0.87842,0 -1.58011,-0.27598 -2.09787,-0.831485 -0.52495,-0.551146 -0.78359,-1.321083 -0.78359,-2.303298 0,-0.990502 0.262,-1.7602 0.78359,-2.311968 0.52399,-0.55584 1.23286,-0.831437 2.12948,-0.831437 0.72851,0 1.31093,0.156765 1.74392,0.472787 0.42867,0.314489 0.73904,0.79403 0.92967,1.441543"
         style="fill:#262626;fill-opacity:1;fill-rule:nonzero;stroke:none"
         id="path3092" />
      <path
         d="m 218.11882,67.438962 1.58777,0.266209 c -0.20835,0.579069 -0.52829,1.021921 -0.96703,1.325059 -0.43969,0.306634 -0.9881,0.456502 -1.64956,0.456502 -1.04222,0 -1.81575,-0.340353 -2.31963,-1.025322 -0.39514,-0.544967 -0.59296,-1.23669 -0.59296,-2.067552 0,-0.998739 0.25912,-1.775382 0.78024,-2.341137 0.52159,-0.561683 1.17825,-0.844177 1.97621,-0.844177 0.89184,0 1.59735,0.296145 2.11511,0.886278 0.51394,0.588937 0.763,1.494326 0.74288,2.710611 l -3.98643,0 c 0.0139,0.470201 0.14034,0.838382 0.38557,1.099754 0.24475,0.263239 0.55129,0.392369 0.91626,0.392369 0.24858,0 0.45693,-0.06792 0.62696,-0.2004 0.17004,-0.140337 0.29936,-0.357739 0.38461,-0.658194"
         style="fill:#262626;fill-opacity:1;fill-rule:nonzero;stroke:none"
         id="path3094" />
      <path
         d="m 218.21078,65.834618 -0.003,-0.04416 0,-0.041 -0.004,-0.0445 -0.004,-0.04081 -0.003,-0.04062 -0.003,-0.03722 -0.006,-0.04133 -0.007,-0.03722 -0.007,-0.03707 -0.007,-0.03779 -0.007,-0.03425 -0.007,-0.03722 -0.0105,-0.03405 -0.0101,-0.03444 -0.0101,-0.03329 -0.0105,-0.03425 -0.0101,-0.03405 -0.0139,-0.0307 -0.0101,-0.03084 -0.0139,-0.0307 -0.0134,-0.03046 -0.0172,-0.02773 -0.0129,-0.03008 -0.0177,-0.02716 -0.0163,-0.02749 -0.0172,-0.02787 -0.0168,-0.02337 -0.0177,-0.02754 -0.0196,-0.02357 -0.0177,-0.02433 -0.0206,-0.02337 -0.0235,-0.02395 c -0.22512,-0.238333 -0.50148,-0.357356 -0.8243,-0.357356 -0.34773,0 -0.63368,0.126111 -0.85975,0.381304 -0.22367,0.248679 -0.33623,0.592529 -0.33288,1.028484 l 2.37423,0"
         style="fill:#ffffff;fill-opacity:1;fill-rule:nonzero;stroke:none"
         id="path3096" />
      <path
         d="m 221.09272,67.636726 1.59496,-0.245086 c 0.0675,0.309795 0.20356,0.54535 0.41526,0.705516 0.20452,0.159975 0.49429,0.241734 0.86885,0.241734 0.41191,0 0.71844,-0.0752 0.92632,-0.227892 0.14321,-0.106282 0.21122,-0.245086 0.21122,-0.422639 0,-0.120125 -0.0374,-0.221713 -0.11304,-0.300503 -0.0814,-0.07482 -0.25864,-0.146085 -0.53069,-0.211032 -1.28123,-0.27895 -2.09548,-0.537687 -2.43937,-0.772908 -0.47322,-0.323637 -0.71175,-0.776595 -0.71175,-1.352695 0,-0.517858 0.20404,-0.956399 0.61691,-1.30796 0.40808,-0.357739 1.0451,-0.534717 1.90676,-0.534717 0.82478,0 1.43786,0.13617 1.83684,0.401469 0.3985,0.269418 0.6739,0.664421 0.8243,1.18865 l -1.49917,0.276507 c -0.0647,-0.234981 -0.18392,-0.412151 -0.36401,-0.535101 -0.18057,-0.129465 -0.43346,-0.190245 -0.76682,-0.190245 -0.41862,0 -0.71893,0.06078 -0.89998,0.176786 -0.11878,0.08176 -0.18009,0.190676 -0.18009,0.324068 0,0.112078 0.0546,0.206913 0.16045,0.285895 0.14273,0.105851 0.63703,0.255384 1.48528,0.449749 0.84441,0.191011 1.43402,0.425465 1.77121,0.705564 0.33049,0.282111 0.49765,0.676731 0.49765,1.181322 0,0.548559 -0.22895,1.025849 -0.69211,1.420612 -0.45933,0.395147 -1.13754,0.592912 -2.03991,0.592912 -0.8176,0 -1.46516,-0.16692 -1.94556,-0.500663 -0.47322,-0.330822 -0.78694,-0.780044 -0.93351,-1.349343"
         style="fill:#262626;fill-opacity:1;fill-rule:nonzero;stroke:none"
         id="path3098" />
      <path
         d="m 228.10382,67.636726 1.59448,-0.245086 c 0.0675,0.309795 0.20404,0.54535 0.41526,0.705516 0.205,0.159975 0.49382,0.241734 0.86837,0.241734 0.41239,0 0.71893,-0.0752 0.9268,-0.227892 0.14369,-0.106282 0.2117,-0.245086 0.2117,-0.422639 0,-0.120125 -0.0378,-0.221713 -0.11591,-0.300503 -0.079,-0.07482 -0.25577,-0.146085 -0.5283,-0.211032 -1.28458,-0.27895 -2.09452,-0.537687 -2.43985,-0.772908 -0.47274,-0.323637 -0.71174,-0.776595 -0.71174,-1.352695 0,-0.517858 0.20499,-0.956399 0.6169,-1.30796 0.40856,-0.357739 1.04607,-0.534717 1.91108,-0.534717 0.82047,0 1.4345,0.13617 1.833,0.401469 0.3985,0.269418 0.6739,0.664421 0.82478,1.18865 l -1.49868,0.276507 c -0.0618,-0.234981 -0.18489,-0.412151 -0.36498,-0.535101 -0.18057,-0.129465 -0.43298,-0.190245 -0.76682,-0.190245 -0.41862,0 -0.71845,0.06078 -0.89902,0.176786 -0.11974,0.08176 -0.18153,0.190676 -0.18153,0.324068 0,0.112078 0.0551,0.206913 0.16046,0.285895 0.14369,0.105851 0.6375,0.255384 1.48623,0.449749 0.84441,0.191011 1.43402,0.425465 1.77073,0.705564 0.33049,0.282111 0.49765,0.676731 0.49765,1.181322 0,0.548559 -0.23182,1.025849 -0.69163,1.420612 -0.45933,0.395147 -1.13802,0.592912 -2.04087,0.592912 -0.81712,0 -1.46468,-0.16692 -1.94173,-0.500663 -0.47657,-0.330822 -0.79029,-0.780044 -0.93638,-1.349343"
         style="fill:#262626;fill-opacity:1;fill-rule:nonzero;stroke:none"
         id="path3100" />
      <path
         d="m 235.67579,62.530281 1.58751,0 0,-1.471326 -1.58751,0 0,1.471326 z"
         style="fill:#262626;fill-opacity:1;fill-rule:nonzero;stroke:none"
         id="path3102" />
      <path
         d="m 235.67579,69.349939 1.58751,0 0,-6.005225 -1.58751,0 0,6.005225 z"
         style="fill:#262626;fill-opacity:1;fill-rule:nonzero;stroke:none"
         id="path3104" />
      <path
         d="m 244.9251,69.349939 -1.58729,0 0,-3.065764 c 0,-0.647131 -0.0378,-1.066609 -0.10585,-1.256519 -0.0642,-0.19082 -0.17674,-0.337336 -0.33001,-0.446396 -0.15375,-0.102163 -0.33719,-0.15643 -0.54842,-0.15643 -0.27636,0 -0.52446,0.07505 -0.74287,0.224347 -0.21793,0.153605 -0.36785,0.35137 -0.44927,0.599809 -0.0814,0.252415 -0.1231,0.708534 -0.1231,1.383014 l 0,2.717939 -1.58681,0 0,-6.005225 1.47474,0 0,0.882351 c 0.52399,-0.678216 1.18544,-1.018521 1.97908,-1.018521 0.35109,0 0.67103,0.06452 0.96368,0.187659 0.28642,0.129273 0.50819,0.288864 0.65762,0.486629 0.14657,0.194364 0.25242,0.419287 0.30989,0.668109 0.0575,0.247722 0.0886,0.602635 0.0886,1.065891 l 0,3.733107"
         style="fill:#262626;fill-opacity:1;fill-rule:nonzero;stroke:none"
         id="path3106" />
      <path
         d="m 246.95927,69.745661 1.81576,0.221521 c 0.0302,0.21065 0.0982,0.357357 0.20787,0.435572 0.14944,0.112413 0.38796,0.170608 0.71174,0.170608 0.41575,0 0.72564,-0.06116 0.93351,-0.187851 0.13938,-0.08511 0.24475,-0.217211 0.31707,-0.401325 0.0474,-0.133392 0.0747,-0.375462 0.0747,-0.729274 l 0,-0.878614 c -0.47753,0.650148 -1.07671,0.973641 -1.80283,0.973641 -0.80322,0 -1.4436,-0.340497 -1.91442,-1.02173 -0.36689,-0.541087 -0.55464,-1.209197 -0.55464,-2.013524 0,-1.007696 0.24571,-1.774616 0.72898,-2.309142 0.48376,-0.531508 1.0863,-0.796999 1.8057,-0.796999 0.7424,0 1.35596,0.326463 1.83923,0.977761 l 0,-0.841591 1.48527,0 0,5.388557 c 0,0.708917 -0.0575,1.237073 -0.17721,1.591268 -0.11256,0.350794 -0.27637,0.623422 -0.48711,0.82454 -0.21506,0.201309 -0.49381,0.35453 -0.84825,0.469769 -0.3506,0.112653 -0.797,0.170656 -1.33536,0.170656 -1.01876,0 -1.74056,-0.176978 -2.16636,-0.524612 -0.42628,-0.34725 -0.64038,-0.78991 -0.64038,-1.324819 0,-0.05465 0.003,-0.11955 0.007,-0.194412"
         style="fill:#262626;fill-opacity:1;fill-rule:nonzero;stroke:none"
         id="path3108" />
      <path
         d="m 248.3794,66.223203 0,0.115814 0.003,0.05819 0,0.05781 0.003,0.05446 0.008,0.05408 0.003,0.05479 0.007,0.05106 0.004,0.0513 0.007,0.05048 0.01,0.0479 0.007,0.0479 0.0101,0.0479 0.0105,0.04737 0.0105,0.0445 0.01,0.04435 0.0105,0.04416 0.0129,0.04114 0.0139,0.04042 0.0139,0.04153 0.0168,0.04042 0.0129,0.03722 0.0172,0.03817 0.0177,0.03367 0.0168,0.03707 0.0168,0.03406 0.0201,0.03425 0.0211,0.03065 0.0201,0.0307 0.0206,0.03051 0.0239,0.03085 0.0201,0.02716 c 0.24906,0.296911 0.55177,0.443043 0.91339,0.443043 0.38796,0 0.7194,-0.149676 0.98475,-0.456358 0.2687,-0.303665 0.40137,-0.752887 0.40137,-1.349534 0,-0.620022 -0.12932,-1.082319 -0.38461,-1.382822 -0.25576,-0.302707 -0.58002,-0.452575 -0.97086,-0.452575 -0.38126,0 -0.69498,0.149868 -0.94404,0.442468 -0.24475,0.296001 -0.36785,0.749534 -0.36785,1.355905"
         style="fill:#ffffff;fill-opacity:1;fill-rule:nonzero;stroke:none"
         id="path3110" />
    </g>
    <image
       y="510.16821"
       x="59.189285"
       id="image3702"
       height="38.936531"
       width="91.398384"
       xlink:href="file:///home/marek/phd/baithesis/fh_logo/orig_logo.png" />
  </g>
</svg>
